<svg id="Laag_1" data-name="Laag 1" xmlns="http://www.w3.org/2000/svg" viewBox="0 0 1920 650"><defs><style>.cls-1{fill:#80c4ed;}</style></defs><path class="cls-1" d="M1934.79-7.68c1,110.58-183.15,201.93-411.73,204.52a1089.81,1089.81,0,0,1-129.89,45.67c-102.31,29.23-206.59,45.16-297.38,48C1024,327.4,930.6,350.13,828.24,351,725,352,630.46,330.52,557.82,294.37,505.35,306.44,447,313.44,385.36,314,211.11,315.54,61.44,265.05-1,192.11q-4.86-5.67-9-11.51V51l.18-.26q2-2.84,4.15-5.62c-1.41-.89-2.82-1.78-4.2-2.67l-.13-.08V-8H1934.78C1934.79-7.89,1934.79-7.79,1934.79-7.68Z"/></svg>