<svg id="Laag_1" data-name="Laag 1" xmlns="http://www.w3.org/2000/svg" xmlns:xlink="http://www.w3.org/1999/xlink" viewBox="0 0 1038 686"><defs><style>.cls-1{fill:none;}.cls-2{fill:#b58431;}.cls-3{clip-path:url(#clip-path);}</style><clipPath id="clip-path"><path class="cls-1" d="M190,1461.48a490.54,490.54,0,0,0,86.71,16.21c66,6.44,128.49,0,179.13-16a240,240,0,0,0,295.6-107,285,285,0,0,0,101.07-17c126.29-45.31,198.27-166.74,160.78-271.23a170.25,170.25,0,0,0-39-61.94c30.18-72.73,27.8-138.6-13.25-171.1-51.09-40.45-146.7-17-234.93,51.07-46.58-9.87-98.88-6.85-150.12,11.53a288.56,288.56,0,0,0-73,38.61c-56.22-24.82-127-27.87-195.9-3.15-71.9,25.79-126.18,76.26-152.69,134.23a285.83,285.83,0,0,0-98.9,17.05C-70.89,1128-142.88,1249.41-105.39,1353.9-68,1458.06,64,1506.05,190,1461.48Z"/></clipPath></defs><path class="cls-2" d="M734.11,90.77a390.85,390.85,0,0,0-70.92-15.72c-53.86-6.87-104.62-2.53-145.53,10.26C475,67.1,427,64.07,381.57,80.37c-45.82,16.44-81.17,49.71-102.46,91.37a215.47,215.47,0,0,0-81.94,12.67C95.25,221,39.06,324.29,71.67,415.18a157.76,157.76,0,0,0,33,54.21c-23.12,62.14-19.86,119,14.2,147.86,42.41,35.92,119.79,17.56,190.27-39.36,38.12,9.44,80.64,7.88,122-7a216.8,216.8,0,0,0,58.68-31.84c46.27,22.53,104,26.57,159.57,6.63C707.42,524.9,750.61,482.44,771,433a215.61,215.61,0,0,0,80.18-12.73c101.92-36.57,158.1-139.88,125.5-230.77C944.21,98.86,835.75,54.83,734.11,90.77Z"/><g class="cls-3"><image width="1880" height="1253" transform="translate(-144 645)" xlink:href="../fotoklas1.jpeg"/></g></svg>