<svg id="Laag_1" data-name="Laag 1" xmlns="http://www.w3.org/2000/svg" xmlns:xlink="http://www.w3.org/1999/xlink" viewBox="0 0 1189 767"><defs><style>.cls-1{fill:none;}.cls-2{clip-path:url(#clip-path);}</style><clipPath id="clip-path"><path class="cls-1" d="M334,698.48a490.54,490.54,0,0,0,86.71,16.21c66,6.44,128.49,0,179.13-16a240,240,0,0,0,295.6-107,285,285,0,0,0,101.07-17c126.29-45.31,198.27-166.74,160.78-271.23a170.25,170.25,0,0,0-39-61.94c30.18-72.73,27.8-138.6-13.25-171.1C1053.86,29.88,958.25,53.38,870,121.4c-46.58-9.87-98.88-6.85-150.12,11.53a288.56,288.56,0,0,0-73,38.61c-56.22-24.82-127-27.87-195.9-3.15-71.9,25.79-126.18,76.26-152.69,134.23a285.83,285.83,0,0,0-98.9,17.05C73.11,365,1.12,486.41,38.61,590.9,76,695.06,208,743.05,334,698.48Z"/></clipPath></defs><g class="cls-2"><image width="1880" height="1253" transform="translate(0 -118)" xlink:href="../fotoklas1.jpeg"/></g></svg>