<svg id="Laag_1" data-name="Laag 1" xmlns="http://www.w3.org/2000/svg" viewBox="0 0 1920 1054"><defs><style>.cls-1{fill:#84b128;}</style></defs><path class="cls-1" d="M1447.81,849.6a745.75,745.75,0,0,1-126.3,57.22c-97.9,34-194.43,45.79-275.87,37.95-72.51,50.77-161,75.28-252.27,62.67-92-12.72-171.13-61-227.25-130.45a411.22,411.22,0,0,1-158,8.51c-204.73-28.29-350.25-199.22-325-381.79a301.25,301.25,0,0,1,40.4-114.23C55.87,282.48,39.62,175,91.92,107.7,157,24,308.78,27.89,462.78,106.54c67.49-32.61,147.54-46.39,230.61-34.91A414.6,414.6,0,0,1,815.5,108.08c77.58-60.26,183.79-90.46,295.46-75,116.56,16.1,213.9,78.45,271.49,162.85a411.71,411.71,0,0,1,154.77-7.69C1742,216.5,1887.47,387.43,1862.24,570,1837.1,752,1651.78,876.84,1447.81,849.6Z"/></svg>