<svg id="Laag_1" data-name="Laag 1" xmlns="http://www.w3.org/2000/svg" viewBox="0 0 179 176"><defs><style>.cls-1{font-size:16.18px;font-family:KumbhSans-Bold, Kumbh Sans;font-weight:700;}.cls-1,.cls-10{fill:#0c5063;}.cls-2{letter-spacing:-0.02em;}.cls-3{letter-spacing:-0.01em;}.cls-4{fill:#80c4ed;}.cls-5{fill:#616160;}.cls-6{fill:#eb639f;}.cls-7{fill:#fffae2;}.cls-8{fill:#e5e0c7;}.cls-9{fill:#f7e68c;}.cls-11{fill:#f9f9f9;}</style></defs><text class="cls-1" transform="translate(33.58 159.24)">klank a<tspan class="cls-2" x="53.55" y="0">v</tspan><tspan x="61.76" y="0">o</tspan><tspan class="cls-3" x="71.13" y="0">n</tspan><tspan x="80.54" y="0">tuur</tspan></text><path class="cls-4" d="M44.47,90.22c0-36.37,18.27-54.32,46.24-54.32s48.09,21.18,45.82,57.47"/><path class="cls-5" d="M135.81,100.41a16.57,16.57,0,0,0-1.29-7.8c-1.78-4.5-7.62-7.77-10.78-8.83s.38,3.65-5.06-1.72-5.69-8.79-8.9-3.57.47,7.68-1.46,7.69a12.78,12.78,0,0,0-6.54,1.53C99.35,89,100,90,100,90l-.08,2.16S85.25,103.52,88.8,104.06,135.81,100.41,135.81,100.41Z"/><path class="cls-5" d="M68.49,72.35c-1,4.78-2.1,1-5.07,5.62s0,0-3.63.52-2,4.43-3.64,7.4-1.5.19-6.79.52-3.06,14.16-3.06,14.16L92,105.12a35.28,35.28,0,0,1-1.43-7.34c-.33-4.06-2.7-3.3-4.56-11.56s-4.75-4-7.72-9.81-2.31-7.36-6.93-8C71.35,68.39,69.55,67.4,68.49,72.35Z"/><path class="cls-5" d="M90.56,79.4c.73,3.4,1.5.7,3.61,4s0,0,2.59.37,1.41,3.16,2.59,5.27,0,0,3.77.24,3.25,10.22,3.25,10.22L74.84,102a21.25,21.25,0,0,1,0-4.47c.23-2.89,1.92-2.35,3.24-8.23s3.39-2.83,5.51-7,1.64-5.25,4.94-5.72C88.53,76.57,89.8,75.87,90.56,79.4Z"/><polygon class="cls-6" points="86 29.5 90.91 18.39 95.12 29.69 86 29.5"/><polygon class="cls-6" points="95.99 133.66 91.59 144.99 86.87 133.9 95.99 133.66"/><polygon class="cls-6" points="142.84 77.29 153.95 82.2 142.66 86.41 142.84 77.29"/><polygon class="cls-6" points="38.14 86.41 27.03 81.5 38.33 77.29 38.14 86.41"/><path class="cls-7" d="M130.24,104.91,127,109.19H100l-2.08,1.53H90.76S99.26,90.55,130.24,104.91Z"/><path class="cls-7" d="M50.86,105l2.83,4h27.9l2.08,1.53h7.18S81.85,90.59,50.86,105Z"/><path class="cls-8" d="M130.38,104.68S97.2,95.16,90.9,110.49c0,0-5.34-14.24-39.5-5.67l-2-4.18S81,91.93,90.9,105.2c0,0,10.93-13.71,41.77-4.88Z"/><polygon class="cls-9" points="55.82 110.83 83.63 110.83 85.05 112.36 97.74 112.36 99.82 110.83 125.31 110.83 126.79 108.96 99.82 108.96 97.74 110.49 85.05 110.49 83.63 108.96 54.34 108.96 55.82 110.83"/><path class="cls-8" d="M91.78,104s9-15.08,40.72-10.51l-.37,1s-26.21-5-39.47,9.85l-1.76.87Z"/><path class="cls-10" d="M125.31,110.83H99.82l-2.08,1.53H85.05l-1.42-1.53H55.82s5.67,14.9,36.17,18.84C92,129.67,121.62,126.39,125.31,110.83Z"/><path class="cls-6" d="M90.56,29.38A52.47,52.47,0,1,0,143,81.85,52.47,52.47,0,0,0,90.56,29.38Zm0,97.72a45.25,45.25,0,1,1,45.25-45.25A45.24,45.24,0,0,1,90.56,127.1Z"/><path class="cls-11" d="M107.72,42.26a10,10,0,0,0-5,1.27c0-.14,0-.28,0-.41,0-4.8-5.59-8.69-12.49-8.69-6.11,0-11.19,3.06-12.27,7.09-4,.57-7.09,3.27-7.09,6.53,0,3.67,3.88,6.64,8.67,6.64a10.64,10.64,0,0,0,4.74-1.08A10.25,10.25,0,0,0,89,54.69a10.41,10.41,0,0,0,4.48-1c1.16,1.67,3.77,2.84,6.81,2.84,4.11,0,7.44-2.14,7.44-4.77,4.11,0,7.45-2.14,7.45-4.77S111.83,42.26,107.72,42.26Z"/><path class="cls-11" d="M61.06,64.81a1.76,1.76,0,0,0-.82-1.33,2.61,2.61,0,0,0,.82-1.84c0-1.69-1.85-3.07-4.13-3.07S52.8,60,52.8,61.64c0,0,0,.06,0,.09h0c-4.56,0-8.25,1.38-8.25,3.08a1.1,1.1,0,0,0,0,.18c-3.18.43-5.46,1.56-5.46,2.89,0,1.7,3.69,3.08,8.25,3.08a17.44,17.44,0,0,0,5.82-.9,4.38,4.38,0,0,0,3.75,1.79c2.28,0,4.13-1.37,4.13-3.07a2.79,2.79,0,0,0-1.37-2.28C60.55,66,61.06,65.43,61.06,64.81Z"/><path class="cls-11" d="M136.45,65.41l-.59,0a2.24,2.24,0,0,0,.49-1.35c0-2.5-4.93-4.52-11-4.52s-11,2-11,4.52c0,0,0,0,0,0-5.37.3-9.5,2.19-9.5,4.48,0,2.49,4.93,4.52,11,4.52a24.86,24.86,0,0,0,4.73-.44,6.62,6.62,0,0,0,11.09.67,10.32,10.32,0,0,0,4.78,1.09c4.06,0,7.35-2,7.35-4.52S140.51,65.41,136.45,65.41Z"/></svg>