<?xml version="1.0" encoding="utf-8"?>
<!-- Generator: Adobe Illustrator 25.2.3, SVG Export Plug-In . SVG Version: 6.00 Build 0)  -->
<svg version="1.1" id="Laag_1" xmlns="http://www.w3.org/2000/svg" xmlns:xlink="http://www.w3.org/1999/xlink" x="0px" y="0px"
	 viewBox="0 0 512 512" style="enable-background:new 0 0 512 512;" xml:space="preserve">
<style type="text/css">
	.st0{fill:#FFFFFF;}
</style>
<path class="st0" d="M346,276H166c-11,0-20-9-20-20c0-11,9-20,20-20h180c11,0,20,9,20,20C366,267,357,276,346,276z M366,176
	c0-11-9-20-20-20H166c-11,0-20,9-20,20s9,20,20,20h180C357,196,366,187,366,176z M366,336c0-11-9-20-20-20H166c-11,0-20,9-20,20
	s9,20,20,20h180C357,356,366,347,366,336z M388.5,475.1c9.4-5.7,12.5-18,6.7-27.5c-5.7-9.4-18-12.5-27.5-6.7
	C334.1,461.2,295.5,472,256,472c-119.1,0-216-96.9-216-216S136.9,40,256,40s216,96.9,216,216c0,42.6-12.7,84-36.6,119.9
	c-6.1,9.2-3.7,21.6,5.5,27.7c9.2,6.1,21.6,3.7,27.7-5.5C497,355.7,512,306.5,512,256c0-68.4-26.6-132.7-75-181S324.4,0,256,0
	S123.3,26.6,75,75S0,187.6,0,256s26.6,132.7,75,181s112.6,75,181,75C302.8,512,348.6,499.2,388.5,475.1z"/>
</svg>
